<svg className="logo-SVG" viewBox="0 0 100 100" xmlns="http://www.w3.org/2000/svg">
<path stroke="#fcd34d" stroke-width="2" fill="#fbbf24" d="M 50,40
l 20,-12
A 6 9 60 0 1 80,35
A 6 9 40 0 1 84,45
A 3 3 0 0 1 84,55
A 7 6 10 0 1 80,65
A 8 6 10 0 1 70,75
l -20,-12
l -20,12
A 5 4 20 0 1 20,65
A 1 1 30 0 1 16,55
A 1 1 0 0 1 16,45
A 7 6 20 0 1 20,35
A 8 7 20 0 1 30,25
z
M 46,45
l -10,-4
M 41,51
l -12,-1
M 46,56
l -10,4
M 54,45
l 10,-4
M 59,51
l 12,1
M 54,56
l 10,4
" />
</svg>